<svg id="login-svg" viewBox="0 0 698 760" fill="none" xmlns="http://www.w3.org/2000/svg">
            <g clip-path="url(#clip0_31_25)">
            <path d="M571.396 357.837C592.999 371.764 613.233 390.414 632.187 413.417V448.588C622.938 445.44 587.636 432.392 573.698 411.756C557.588 387.907 554.722 351.704 568.14 342.639C571.635 340.284 575.879 339.991 580.536 341.282C595.224 351.845 609.271 364.654 622.688 379.58C627.443 386.886 630.385 396.189 632.187 405.59V406.035C614.829 381.871 594.421 366.196 571.396 357.837Z" fill="#6C63FF"/>
            <path d="M570.311 141.814C591.913 155.741 612.148 174.391 631.101 197.394V205.427C629.288 204.808 626.488 203.82 623.036 202.463C607.534 184.085 589.861 171.71 570.311 164.61C583.989 173.425 597.124 184.139 609.727 196.655C596.396 190.24 580.808 180.731 572.612 168.594C571.744 167.313 570.919 166.021 570.137 164.719C556.351 141.836 555.439 116.738 568.14 108.162C581.557 99.0977 605.081 111.94 621.19 135.778C630.504 149.575 633.12 170.982 633.652 186.56C632.795 187.689 631.948 188.84 631.101 190.012C613.743 165.848 593.335 150.173 570.311 141.814V141.814Z" fill="#6C63FF"/>
            <path d="M693.281 270.131V270.142C691.739 274.408 689.807 278.718 687.506 282.962C684.086 289.28 678.832 295.142 672.883 300.385C666.511 306.008 659.325 310.915 652.714 314.899C643.487 320.468 635.378 324.246 632.187 325.678V322.259C650.521 300.44 670.018 282.658 690.806 269.263C668.726 277.274 649.067 292.038 632.187 314.541V299.463C650.521 277.643 670.018 259.862 690.806 246.467C668.726 254.478 649.067 269.241 632.187 291.744V276.666C650.282 255.14 669.497 237.543 689.981 224.213C699.577 231.931 700.413 250.548 693.281 270.131V270.131Z" fill="#6C63FF"/>
            <path d="M155.976 422.526C242.119 422.526 311.952 352.693 311.952 266.55C311.952 180.407 242.119 110.574 155.976 110.574C69.8327 110.574 0 180.407 0 266.55C0 352.693 69.8327 422.526 155.976 422.526Z" fill="#FF6884"/>
            <path d="M644.666 516.621C657.785 527.672 662.717 543.399 655.682 551.747C648.648 560.095 632.313 557.902 619.191 546.845C613.889 542.5 609.704 536.949 606.987 530.655L551.993 483.129L574.846 457.797L626.634 507.339C633.3 508.948 639.483 512.131 644.666 516.621Z" fill="#FCB4B4"/>
            <path d="M600.259 481.458L533.031 395.13L469.355 278.592L467.704 440.219L563.15 518.612L600.259 481.458Z" fill="#2F2E41"/>
            <path d="M307.812 243.838L323.213 173.814L374.689 176.291L387.903 227.089L307.812 243.838Z" fill="#FCB4B4"/>
            <path opacity="0.1" d="M307.812 243.838L323.213 173.814L374.689 176.291L387.903 227.089L307.812 243.838Z" fill="black"/>
            <path d="M347.677 192.604C379.505 192.604 405.307 166.803 405.307 134.975C405.307 103.146 379.505 77.3447 347.677 77.3447C315.849 77.3447 290.048 103.146 290.048 134.975C290.048 166.803 315.849 192.604 347.677 192.604Z" fill="#FCB4B4"/>
            <path d="M321.899 157.23V157.23C321.899 157.23 316.085 157.173 303.992 154.924C291.899 152.676 312.896 180.934 312.896 180.934C255.987 157.171 274.198 96.8977 274.198 96.8977C216.442 85.8523 240.637 34.5088 240.637 34.5088C240.637 34.5088 259.675 -2.23087 318.2 0.107026C376.725 2.44493 349.077 60.167 349.077 60.167C387.208 60.2392 391.498 94.6037 391.498 94.6037C391.498 94.6037 377.752 96.3196 352.771 102.66C327.79 109 321.899 157.23 321.899 157.23L321.899 157.23L321.899 157.23H321.899Z" fill="#2F2E41"/>
            <path d="M319.614 221.785L317.012 216.716C317.012 216.716 270.701 222.084 263.102 229.17C255.503 236.256 238.135 267.736 238.135 267.736L276.129 300.303L319.614 221.785V221.785Z" fill="#FFB6B6"/>
            <path d="M377.084 220.554C377.084 220.554 411.821 211.288 431.361 230.828C450.901 250.368 473.697 286.191 473.697 286.191L472.612 314.415L418.335 288.25L377.084 220.554V220.554Z" fill="#FFB6B6"/>
            <path d="M385.939 216.717C385.939 216.717 431.361 200.434 460.671 235.171C489.98 269.908 498.665 379.548 498.665 379.548C498.665 379.548 564.883 582.545 548.6 584.716C532.316 586.887 432.946 592.887 432.946 592.887L398.795 371.949L383.597 216.717H385.939V216.717Z" fill="#2F2E41"/>
            <path d="M281.556 412.114L270.701 451.194L418.334 462.049C418.334 462.049 412.907 429.38 418.334 417.491L281.556 412.114Z" fill="#FCB4B4"/>
            <path d="M365.143 666.131L371.656 759.487L453.636 757.316L450.901 662.874L365.143 666.131Z" fill="#FCB4B4"/>
            <path d="M237.239 656.896L213.167 758.402L298.989 757.821L320.854 674.853L237.239 656.896Z" fill="#FCB4B4"/>
            <path d="M383.597 216.716H317.012L263.102 288.362L275.043 434.91C275.043 434.91 302.182 427.311 340.176 427.311H421.591C421.591 427.311 409.65 389.317 424.848 374.119C440.045 358.922 429.19 288.362 429.19 288.362L383.597 216.716V216.716Z" fill="#6C63FF"/>
            <path d="M265.273 439.252L204.483 659.617C204.483 659.617 293.997 695.585 348.024 685.2C402.051 674.815 475.868 671.558 475.868 671.558L423.762 447.936L265.273 439.252V439.252Z" fill="#2F2E41"/>
            <path d="M405.847 519.878C418.965 530.929 423.897 546.656 416.863 555.004C409.828 563.352 393.494 561.159 380.372 550.102C375.069 545.757 370.885 540.205 368.168 533.912L313.174 486.385L336.027 461.054L387.815 510.596C394.48 512.205 400.664 515.388 405.847 519.878V519.878Z" fill="#FCB4B4"/>
            <path d="M372.295 481.458L305.067 395.13L241.391 278.592L239.74 440.219L335.187 518.612L372.295 481.458Z" fill="#2F2E41"/>
            <path d="M321.55 216.717C321.55 216.717 276.128 200.434 246.819 235.171C217.509 269.908 208.825 379.548 208.825 379.548C208.825 379.548 142.607 582.545 158.89 584.716C175.173 586.887 274.543 592.887 274.543 592.887L308.695 371.949L323.892 216.717H321.55Z" fill="#2F2E41"/>
            <path d="M633.272 175.466H631.101V553.235H633.272V175.466Z" fill="#3F3D56"/>
            <path d="M29.7104 563.004C51.3127 576.931 71.5472 595.581 90.5008 618.584V653.755C81.2519 650.607 45.9501 637.559 32.0118 616.923C15.9023 593.074 13.0365 556.871 26.4538 547.806C29.9492 545.451 34.1937 545.158 38.8506 546.449C53.538 557.012 67.585 569.821 81.0023 584.747C85.757 592.053 88.6989 601.356 90.5008 610.757V611.202C73.143 587.038 52.7347 571.363 29.7104 563.004V563.004Z" fill="#6C63FF"/>
            <path d="M28.625 346.981C50.2273 360.908 70.4619 379.558 89.4154 402.561V410.594C87.6026 409.975 84.8018 408.987 81.3499 407.63C65.8483 389.252 48.1757 376.877 28.625 369.777C42.3028 378.592 55.4379 389.306 68.0411 401.822C54.7106 395.407 39.1222 385.898 30.9264 373.761C30.058 372.48 29.2329 371.188 28.4514 369.886C14.665 347.003 13.7531 321.905 26.4539 313.329C39.8712 304.265 63.395 317.107 79.5044 340.945C88.8183 354.742 91.4345 376.149 91.9664 391.727C91.1089 392.856 90.2622 394.007 89.4154 395.179C72.0576 371.015 51.6493 355.34 28.625 346.981V346.981Z" fill="#6C63FF"/>
            <path d="M151.595 475.298V475.309C150.054 479.575 148.122 483.885 145.82 488.129C142.401 494.447 137.147 500.309 131.198 505.552C124.826 511.175 117.64 516.082 111.028 520.066C101.801 525.635 93.6924 529.413 90.501 530.846V527.426C108.836 505.607 128.332 487.825 149.12 474.43C127.04 482.441 107.381 497.205 90.501 519.708V504.63C108.836 482.81 128.332 465.029 149.12 451.634C127.04 459.645 107.381 474.408 90.501 496.911V481.833C108.597 460.307 127.811 442.71 148.295 429.38C157.892 437.098 158.727 455.715 151.595 475.298V475.298Z" fill="#6C63FF"/>
            <path d="M91.5866 380.633H89.4155V758.402H91.5866V380.633Z" fill="#3F3D56"/>
            </g>
            </svg>
