<svg viewBox="0 0 800 613" fill="none" xmlns="http://www.w3.org/2000/svg">
                <g clip-path="url(#clip0_127_639)">
                    <path d="M159.847 458.859C159.203 457.773 156.418 458.936 155.906 457.95C155.395 456.969 157.983 455.473 159.462 452.056C159.728 451.44 161.408 447.557 160.165 446.359C157.807 444.088 147.019 453.46 143.243 450.393C142.415 449.72 141.836 448.376 139.328 446.195C138.331 445.327 137.727 444.935 137.144 445.081C136.315 445.287 136.249 446.396 135.361 448.576C134.029 451.845 133.241 451.648 132.465 454.256C131.889 456.192 132.02 457.318 131.342 457.537C130.383 457.848 129.5 455.794 128.284 455.978C127.043 456.166 126.293 458.557 126.056 460.347C125.611 463.707 126.845 465.924 127.529 468.255C128.272 470.789 128.713 474.642 126.997 480.096L110.01 527.957C113.76 518.136 124.619 491.214 129.182 481.21C130.499 478.322 131.953 475.392 134.94 474.236C137.815 473.123 141.763 473.787 146.797 472.575C147.385 472.433 149.017 472.018 149.222 471.058C149.392 470.265 148.432 469.822 148.58 469.079C148.777 468.083 150.665 468.07 152.984 466.921C154.619 466.11 155.637 465.145 156.514 464.316C156.778 464.066 160.704 460.304 159.847 458.859Z" fill="#FFE5EA"/>
                    <path d="M93.0146 484.055C92.296 484.058 92.0629 485.76 91.4316 485.727C90.8026 485.694 90.8151 483.993 89.5647 482.281C89.3392 481.972 87.9181 480.028 86.9712 480.292C85.1763 480.794 86.6635 488.793 84.0688 489.761C83.4994 489.974 82.6729 489.87 80.8786 490.472C80.1648 490.711 79.7984 490.894 79.7015 491.222C79.564 491.689 80.0892 492.041 80.9029 493.106C82.1231 494.703 81.7988 495.033 82.8551 496.166C83.6392 497.008 84.2296 497.268 84.1416 497.664C84.0171 498.224 82.7543 498.065 82.4937 498.715C82.2278 499.378 83.185 500.436 83.9954 501.069C85.5161 502.257 86.9603 502.291 88.3017 502.628C89.7596 502.994 91.7778 503.889 93.9596 506.305L112.549 528.452C108.811 523.778 98.7304 510.681 95.1367 505.554C94.0992 504.075 93.0811 502.516 93.3753 500.716C93.6585 498.984 95.124 497.238 95.9812 494.417C96.0814 494.088 96.3484 493.167 95.9367 492.79C95.5963 492.477 95.102 492.821 94.7799 492.534C94.3478 492.149 94.8863 491.219 94.9911 489.75C95.0649 488.713 94.8856 487.935 94.7314 487.266C94.6849 487.064 93.9712 484.051 93.0146 484.055Z" fill="#FFE5EA"/>
                    <path d="M107.349 487.273L106.916 483.408L107.114 483.115C108.029 481.76 108.496 480.437 108.501 479.181C108.502 478.982 108.493 478.782 108.484 478.579C108.446 477.773 108.4 476.77 108.922 475.602C109.215 474.951 110.038 473.443 111.275 473.63C111.608 473.676 111.86 473.829 112.052 474.009C112.079 473.964 112.108 473.919 112.139 473.871C112.525 473.283 112.83 473.031 113.124 472.788C113.349 472.602 113.583 472.409 113.948 471.954C114.109 471.754 114.234 471.579 114.339 471.432C114.659 470.986 115.077 470.454 115.814 470.463C116.602 470.5 117.014 471.152 117.288 471.583C117.776 472.352 117.997 472.906 118.143 473.273C118.197 473.408 118.257 473.559 118.288 473.606C118.542 473.979 120.605 473.63 121.382 473.503C123.128 473.212 124.638 472.96 125.261 474.061C125.707 474.848 125.375 475.89 124.246 477.239C123.895 477.659 123.521 477.978 123.188 478.228C123.464 478.392 123.71 478.644 123.81 479.04C124.045 479.976 123.24 480.915 121.417 481.833C120.965 482.063 120.356 482.369 119.502 482.516C119.1 482.585 118.738 482.602 118.428 482.611C118.421 482.79 118.379 482.984 118.27 483.184C117.95 483.772 117.284 484.052 116.28 483.985C115.175 483.927 114.266 483.716 113.463 483.531C112.762 483.371 112.159 483.235 111.685 483.266C110.806 483.337 110.128 484.041 109.334 484.953L107.349 487.273Z" fill="#FFE5EA"/>
                    <path d="M109.358 464.262L105.73 465.661L105.396 465.544C103.853 465.002 102.455 464.887 101.239 465.2C101.046 465.25 100.855 465.309 100.66 465.37C99.8901 465.611 98.9326 465.91 97.6701 465.701C96.9658 465.583 95.2986 465.169 95.1653 463.925C95.1259 463.591 95.2101 463.308 95.3348 463.078C95.2844 463.062 95.2337 463.046 95.179 463.028C94.5127 462.804 94.1916 462.573 93.8824 462.35C93.6446 462.179 93.3995 462.003 92.8663 461.764C92.6325 461.66 92.4311 461.583 92.2617 461.519C91.7491 461.322 91.1287 461.053 90.9507 460.337C90.7871 459.566 91.3124 459.002 91.6601 458.628C92.28 457.961 92.76 457.607 93.0784 457.372C93.1949 457.286 93.3257 457.189 93.363 457.148C93.6597 456.808 92.7989 454.901 92.479 454.181C91.7546 452.566 91.1277 451.169 92.0349 450.288C92.6835 449.656 93.7747 449.713 95.3661 450.462C95.8615 450.696 96.2651 450.977 96.5912 451.235C96.6802 450.927 96.8614 450.625 97.2188 450.428C98.0653 449.963 99.1775 450.504 100.528 452.034C100.865 452.413 101.315 452.925 101.674 453.713C101.843 454.085 101.951 454.431 102.039 454.728C102.214 454.689 102.412 454.68 102.633 454.735C103.283 454.896 103.722 455.469 103.912 456.457C104.136 457.54 104.163 458.474 104.188 459.297C104.21 460.015 104.232 460.634 104.383 461.084C104.674 461.917 105.527 462.393 106.611 462.931L109.358 464.262Z" fill="#FFE5EA"/>
                    <path d="M107.349 452.876L106.916 449.012L107.114 448.719C108.029 447.364 108.496 446.041 108.501 444.785C108.502 444.585 108.493 444.386 108.484 444.182C108.446 443.376 108.4 442.374 108.922 441.206C109.215 440.554 110.038 439.047 111.275 439.233C111.608 439.28 111.86 439.433 112.052 439.612C112.079 439.567 112.108 439.523 112.139 439.474C112.525 438.886 112.83 438.634 113.124 438.392C113.349 438.205 113.583 438.013 113.948 437.558C114.109 437.358 114.234 437.182 114.339 437.035C114.659 436.589 115.077 436.057 115.814 436.067C116.602 436.104 117.014 436.755 117.288 437.186C117.776 437.955 117.997 438.509 118.143 438.877C118.197 439.011 118.257 439.162 118.288 439.209C118.542 439.582 120.605 439.233 121.382 439.106C123.128 438.815 124.638 438.563 125.261 439.664C125.707 440.452 125.375 441.493 124.246 442.842C123.895 443.262 123.521 443.581 123.188 443.831C123.464 443.996 123.71 444.247 123.81 444.643C124.045 445.58 123.24 446.519 121.417 447.437C120.965 447.666 120.356 447.972 119.502 448.12C119.1 448.189 118.738 448.205 118.428 448.215C118.421 448.394 118.379 448.588 118.27 448.788C117.95 449.376 117.284 449.655 116.28 449.588C115.175 449.53 114.266 449.32 113.463 449.135C112.762 448.974 112.159 448.838 111.685 448.87C110.806 448.941 110.128 449.644 109.334 450.557L107.349 452.876Z" fill="#FFE5EA"/>
                    <path d="M111.304 527.893L110.494 527.386L109.55 527.494C109.535 527.406 109.484 527.205 109.407 526.889C108.984 525.161 107.695 519.903 106.62 511.621C105.87 505.84 105.446 499.896 105.358 493.953C105.27 488 105.552 483.494 105.778 479.871C105.949 477.139 106.156 474.538 106.359 472.004C106.9 465.234 107.411 458.839 107.031 451.759C106.947 450.178 106.771 446.888 104.849 443.387C103.734 441.357 102.198 439.554 100.283 438.032L101.474 436.535C103.587 438.218 105.286 440.215 106.524 442.469C108.655 446.351 108.848 449.936 108.94 451.658C109.326 458.863 108.81 465.32 108.264 472.155C108.062 474.68 107.855 477.27 107.685 479.991C107.461 483.579 107.182 488.047 107.269 493.923C107.355 499.796 107.775 505.666 108.515 511.375C109.576 519.552 110.846 524.732 111.263 526.434C111.485 527.343 111.532 527.533 111.304 527.893Z" fill="#F2F2F2"/>
                    <path d="M96.7778 441.068C96.6994 441.068 96.6201 441.066 96.5398 441.061C94.9126 440.973 93.4058 439.999 92.0603 438.166C91.4296 437.304 91.1067 436.321 90.4629 434.359C90.3631 434.057 89.8779 432.523 89.5831 430.413C89.3899 429.034 89.4142 428.457 89.6876 427.948C89.9908 427.38 90.4816 426.985 91.0339 426.718C91.0097 426.535 91.0293 426.346 91.1086 426.154C91.4342 425.357 92.3001 425.462 92.7685 425.512C93.0055 425.542 93.3013 425.581 93.6204 425.565C94.1223 425.54 94.392 425.391 94.8007 425.167C95.1916 424.952 95.6777 424.686 96.399 424.538C97.8209 424.242 99.0124 424.645 99.4052 424.777C101.472 425.466 102.491 427.072 103.67 428.933C103.905 429.306 104.712 430.665 105.245 432.527C105.63 433.871 105.575 434.468 105.46 434.912C105.225 435.824 104.669 436.347 103.26 437.5C101.787 438.707 101.048 439.312 100.414 439.68C98.9369 440.532 98.0094 441.068 96.7778 441.068Z" fill="#FFE5EA"/>
                    <path d="M704.157 460.082C703.513 458.996 700.728 460.158 700.216 459.173C699.706 458.191 702.294 456.696 703.772 453.279C704.039 452.663 705.719 448.78 704.475 447.581C702.118 445.31 691.329 454.683 687.554 451.616C686.725 450.943 686.146 449.599 683.639 447.417C682.641 446.549 682.038 446.157 681.454 446.303C680.626 446.51 680.56 447.619 679.672 449.799C678.34 453.068 677.552 452.871 676.775 455.479C676.199 457.415 676.331 458.541 675.653 458.76C674.693 459.07 673.81 457.017 672.594 457.201C671.354 457.388 670.603 459.78 670.366 461.57C669.922 464.93 671.156 467.147 671.84 469.478C672.583 472.011 673.024 475.864 671.308 481.318L654.32 529.18C658.071 519.359 668.929 492.437 673.492 482.432C674.809 479.544 676.264 476.615 679.25 475.459C682.125 474.346 686.074 475.01 691.108 473.797C691.696 473.656 693.327 473.241 693.533 472.281C693.702 471.488 692.743 471.045 692.89 470.302C693.088 469.305 694.975 469.293 697.294 468.143C698.929 467.332 699.948 466.368 700.824 465.539C701.088 465.289 705.014 461.527 704.157 460.082Z" fill="#FFE5EA"/>
                    <path d="M637.325 485.278C636.607 485.28 636.373 486.983 635.742 486.95C635.113 486.917 635.126 485.215 633.875 483.504C633.65 483.195 632.229 481.25 631.282 481.515C629.487 482.017 630.974 490.016 628.379 490.984C627.81 491.196 626.983 491.093 625.189 491.694C624.475 491.933 624.109 492.116 624.012 492.445C623.875 492.911 624.4 493.263 625.213 494.328C626.434 495.925 626.109 496.255 627.166 497.389C627.95 498.23 628.54 498.49 628.452 498.886C628.328 499.447 627.065 499.288 626.804 499.938C626.538 500.601 627.496 501.659 628.306 502.292C629.827 503.479 631.271 503.514 632.612 503.851C634.07 504.217 636.088 505.112 638.27 507.528L656.86 529.675C653.121 525.001 643.041 511.903 639.447 506.777C638.41 505.297 637.392 503.738 637.686 501.939C637.969 500.207 639.435 498.46 640.292 495.64C640.392 495.31 640.659 494.39 640.247 494.012C639.907 493.7 639.413 494.043 639.09 493.757C638.658 493.372 639.197 492.442 639.302 490.972C639.375 489.936 639.196 489.157 639.042 488.488C638.995 488.286 638.282 485.274 637.325 485.278Z" fill="#FFE5EA"/>
                    <path d="M651.659 488.495L651.227 484.631L651.424 484.338C652.34 482.983 652.806 481.66 652.812 480.404C652.813 480.204 652.803 480.005 652.794 479.801C652.757 478.995 652.71 477.993 653.233 476.825C653.526 476.174 654.349 474.666 655.586 474.852C655.919 474.899 656.171 475.052 656.362 475.231C656.39 475.186 656.419 475.142 656.45 475.093C656.835 474.505 657.14 474.253 657.434 474.011C657.66 473.824 657.893 473.632 658.259 473.177C658.419 472.977 658.544 472.802 658.65 472.654C658.97 472.208 659.388 471.676 660.125 471.686C660.912 471.723 661.325 472.374 661.598 472.805C662.086 473.574 662.307 474.128 662.454 474.496C662.507 474.63 662.568 474.782 662.599 474.828C662.852 475.201 664.915 474.852 665.693 474.726C667.438 474.434 668.949 474.183 669.571 475.283C670.017 476.071 669.686 477.112 668.557 478.461C668.205 478.881 667.831 479.2 667.499 479.45C667.774 479.615 668.02 479.867 668.12 480.262C668.355 481.199 667.55 482.138 665.728 483.056C665.275 483.285 664.666 483.591 663.812 483.739C663.41 483.808 663.048 483.825 662.738 483.834C662.732 484.013 662.69 484.207 662.581 484.407C662.261 484.995 661.595 485.275 660.591 485.207C659.486 485.15 658.576 484.939 657.774 484.754C657.073 484.593 656.469 484.457 655.995 484.489C655.116 484.56 654.439 485.263 653.644 486.176L651.659 488.495Z" fill="#F2F2F2"/>
                    <path d="M653.669 465.485L650.04 466.884L649.707 466.767C648.164 466.225 646.766 466.109 645.55 466.423C645.356 466.472 645.165 466.532 644.971 466.593C644.201 466.833 643.243 467.133 641.981 466.923C641.276 466.805 639.609 466.392 639.476 465.148C639.437 464.814 639.521 464.531 639.645 464.301C639.595 464.285 639.544 464.268 639.49 464.251C638.823 464.027 638.502 463.796 638.193 463.573C637.955 463.402 637.71 463.225 637.177 462.987C636.943 462.882 636.742 462.806 636.572 462.741C636.06 462.545 635.439 462.275 635.261 461.56C635.098 460.789 635.623 460.225 635.971 459.851C636.591 459.184 637.071 458.829 637.389 458.594C637.505 458.509 637.636 458.412 637.674 458.37C637.97 458.03 637.109 456.123 636.79 455.404C636.065 453.789 635.438 452.391 636.345 451.51C636.994 450.879 638.085 450.935 639.677 451.685C640.172 451.919 640.576 452.2 640.902 452.458C640.991 452.15 641.172 451.848 641.529 451.651C642.376 451.186 643.488 451.727 644.838 453.256C645.175 453.636 645.626 454.148 645.985 454.936C646.154 455.307 646.262 455.653 646.349 455.951C646.524 455.912 646.723 455.903 646.944 455.958C647.593 456.118 648.033 456.692 648.223 457.68C648.447 458.763 648.474 459.697 648.499 460.52C648.521 461.238 648.542 461.857 648.693 462.307C648.985 463.139 649.837 463.616 650.922 464.154L653.669 465.485L653.669 465.485Z" fill="#FFE5EA"/>
                    <path d="M651.659 454.099L651.227 450.234L651.424 449.941C652.34 448.586 652.806 447.263 652.812 446.008C652.813 445.808 652.803 445.608 652.794 445.405C652.757 444.599 652.71 443.597 653.233 442.428C653.526 441.777 654.349 440.269 655.586 440.456C655.919 440.503 656.171 440.656 656.362 440.835C656.39 440.79 656.419 440.745 656.45 440.697C656.835 440.109 657.14 439.857 657.434 439.614C657.66 439.428 657.893 439.236 658.259 438.78C658.419 438.581 658.544 438.405 658.65 438.258C658.97 437.812 659.388 437.28 660.125 437.289C660.912 437.327 661.325 437.978 661.598 438.409C662.086 439.178 662.307 439.732 662.454 440.1C662.507 440.234 662.568 440.385 662.599 440.432C662.852 440.805 664.915 440.456 665.693 440.329C667.438 440.038 668.949 439.786 669.571 440.887C670.017 441.675 669.686 442.716 668.557 444.065C668.205 444.485 667.831 444.804 667.499 445.054C667.774 445.218 668.02 445.47 668.12 445.866C668.355 446.803 667.55 447.741 665.728 448.659C665.275 448.889 664.666 449.195 663.812 449.342C663.41 449.411 663.048 449.428 662.738 449.437C662.732 449.617 662.69 449.811 662.581 450.01C662.261 450.598 661.595 450.878 660.591 450.811C659.486 450.753 658.576 450.542 657.774 450.357C657.073 450.197 656.469 450.061 655.995 450.092C655.116 450.163 654.439 450.867 653.644 451.779L651.659 454.099Z" fill="#F2F2F2"/>
                    <path d="M655.615 529.116L654.805 528.609L654.609 527.674L654.805 528.609L653.861 528.717C653.846 528.629 653.795 528.427 653.717 528.112C653.294 526.384 652.006 521.125 650.931 512.844C650.181 507.063 649.756 501.119 649.669 495.176C649.581 489.223 649.863 484.716 650.089 481.094C650.259 478.362 650.466 475.761 650.67 473.227C651.211 466.456 651.721 460.061 651.342 452.981C651.258 451.401 651.081 448.111 649.159 444.61C648.044 442.58 646.508 440.777 644.594 439.254L645.784 437.758C647.898 439.441 649.597 441.438 650.835 443.692C652.966 447.573 653.158 451.158 653.251 452.881C653.637 460.086 653.121 466.542 652.574 473.378C652.373 475.903 652.165 478.493 651.996 481.213C651.772 484.802 651.493 489.269 651.579 495.146C651.665 501.018 652.085 506.889 652.825 512.597C653.887 520.775 655.157 525.955 655.574 527.657C655.796 528.566 655.843 528.756 655.615 529.116Z" fill="#F2F2F2"/>
                    <path d="M641.088 442.291C641.01 442.291 640.931 442.289 640.85 442.283C639.223 442.196 637.716 441.221 636.371 439.389C635.74 438.527 635.417 437.543 634.773 435.582C634.674 435.28 634.188 433.746 633.894 431.635C633.7 430.256 633.725 429.68 633.998 429.17C634.301 428.603 634.792 428.207 635.344 427.94C635.32 427.758 635.34 427.569 635.419 427.377C635.745 426.58 636.611 426.685 637.079 426.735C637.316 426.765 637.612 426.804 637.931 426.787C638.433 426.763 638.703 426.614 639.111 426.39C639.502 426.175 639.988 425.908 640.709 425.761C642.131 425.464 643.323 425.867 643.716 426C645.782 426.688 646.801 428.295 647.981 430.156C648.216 430.529 649.023 431.887 649.556 433.75C649.94 435.093 649.886 435.69 649.77 436.134C649.535 437.047 648.98 437.569 647.57 438.723C646.098 439.93 645.359 440.535 644.724 440.902C643.247 441.755 642.32 442.291 641.088 442.291Z" fill="#FFE5EA"/>
                    <path d="M391.798 238.64C437.735 238.64 474.974 201.401 474.974 155.464C474.974 109.528 437.735 72.2891 391.798 72.2891C345.862 72.2891 308.623 109.528 308.623 155.464C308.623 201.401 345.862 238.64 391.798 238.64Z" fill="#FFE5EA"/>
                    <path d="M713.155 527.385C713.155 527.952 712.695 528.412 712.128 528.412H0V526.357H712.128C712.695 526.357 713.155 526.817 713.155 527.385Z" fill="#E9F1F2"/>
                    <path d="M605.853 527.308C605.853 573.92 610.746 608.037 559.985 611.707C505.476 615.647 514.116 573.92 514.116 527.308C514.116 480.696 506.777 434.348 559.985 442.91C584.995 446.934 605.853 480.696 605.853 527.308Z" fill="#3F3D56"/>
                    <path d="M528.792 586.018C532.845 586.018 536.131 559.731 536.131 527.306C536.131 494.88 532.845 468.594 528.792 468.594C524.739 468.594 521.453 494.88 521.453 527.306C521.453 559.731 524.739 586.018 528.792 586.018Z" fill="#F4F8F9"/>
                    <path d="M238.461 452.246C238.461 493.38 242.779 523.487 197.983 526.726C149.88 530.203 157.504 493.38 157.504 452.246C157.504 411.111 151.028 370.209 197.983 377.765C220.054 381.317 238.461 411.111 238.461 452.246Z" fill="#3F3D56"/>
                    <path d="M170.457 504.058C174.034 504.058 176.934 480.861 176.934 452.246C176.934 423.631 174.034 400.434 170.457 400.434C166.88 400.434 163.98 423.631 163.98 452.246C163.98 480.861 166.88 504.058 170.457 504.058Z" fill="#F4F8F9"/>
                    <path d="M308.011 526.697C308.011 573.309 312.904 607.426 262.143 611.095C207.635 615.036 216.274 573.309 216.274 526.697C216.274 480.085 208.935 433.736 262.143 442.298C287.154 446.323 308.011 480.085 308.011 526.697Z" fill="#3F3D56"/>
                    <path d="M230.952 585.406C235.005 585.406 238.291 559.12 238.291 526.694C238.291 494.269 235.005 467.982 230.952 467.982C226.899 467.982 223.613 494.269 223.613 526.694C223.613 559.12 226.899 585.406 230.952 585.406Z" fill="#F4F8F9"/>
                    <path d="M163.066 353.619V382.551L155.115 395.819L157.562 442.299L159.541 443.522L158.173 396.43C172.109 391.242 176.666 400.798 175.297 419.67L172.851 451.473L211.992 475.936L216.885 425.786L235.233 417.224L255.415 502.234H593.557C607.496 502.234 618.635 490.635 618.071 476.708L613.803 371.355L602.289 359.841L591.622 236.467C588.962 205.7 562.874 182.282 531.999 182.947L320.472 187.506C308.997 187.754 297.659 190.064 287.002 194.327L235.844 214.79L202.824 247.811L197.926 327.321L185.441 326.236C176.459 325.455 168.268 331.39 166.214 340.168L163.066 353.619Z" fill="#A3C2C8"/>
                    <path d="M272.538 467.983C279.294 467.983 284.77 462.507 284.77 455.751C284.77 448.996 279.294 443.52 272.538 443.52C265.783 443.52 260.307 448.996 260.307 455.751C260.307 462.507 265.783 467.983 272.538 467.983Z" fill="#3F3D56"/>
                    <path d="M300.671 467.983C307.426 467.983 312.903 462.507 312.903 455.751C312.903 448.996 307.426 443.52 300.671 443.52C293.916 443.52 288.439 448.996 288.439 455.751C288.439 462.507 293.916 467.983 300.671 467.983Z" fill="#3F3D56"/>
                    <path d="M574.661 467.983C581.417 467.983 586.893 462.507 586.893 455.751C586.893 448.996 581.417 443.52 574.661 443.52C567.906 443.52 562.43 448.996 562.43 455.751C562.43 462.507 567.906 467.983 574.661 467.983Z" fill="#3F3D56"/>
                    <path d="M602.794 467.983C609.55 467.983 615.026 462.507 615.026 455.751C615.026 448.996 609.55 443.52 602.794 443.52C596.039 443.52 590.562 448.996 590.562 455.751C590.562 462.507 596.039 467.983 602.794 467.983Z" fill="#3F3D56"/>
                    <path d="M583.708 340.862H296.148C293.95 340.862 291.904 339.987 290.387 338.396C288.87 336.805 288.091 334.719 288.195 332.524L292.396 243.691C292.595 239.491 296.044 236.159 300.247 236.105L571.771 232.61C575.78 232.572 579.257 235.545 579.772 239.559L591.606 331.887C591.897 334.155 591.197 336.442 589.686 338.159C588.174 339.877 585.995 340.862 583.708 340.862Z" fill="white"/>
                    <path d="M255.997 336.495H237.339C235.126 336.495 232.994 335.563 231.492 333.938C229.99 332.312 229.228 330.114 229.401 327.907L234.772 259.751C235.066 256.009 237.867 253.024 241.583 252.493L260.864 249.739C263.278 249.396 265.682 250.157 267.456 251.832C269.23 253.507 270.13 255.862 269.924 258.293L263.932 329.203C263.581 333.36 260.169 336.495 255.997 336.495Z" fill="white"/>
                    <path d="M213.092 334.761C212.899 334.761 212.705 334.754 212.511 334.741L210.32 334.584C208.156 334.429 206.194 333.431 204.797 331.771C203.399 330.111 202.749 328.009 202.964 325.849L208.991 265.579C209.348 262.011 212.068 259.108 215.606 258.518C218.017 258.113 220.439 258.825 222.252 260.463C224.065 262.1 225.016 264.437 224.861 266.875L221.025 327.303C220.889 329.437 219.927 331.388 218.316 332.795C216.852 334.074 215.016 334.761 213.092 334.761L213.092 334.761Z" fill="white"/>
                    <path d="M182.754 457.726L179.581 388.478C179.581 388.478 172.242 378.692 167.349 381.139C162.456 383.585 155.189 397.189 155.189 397.189C155.189 397.189 169.371 396.26 168.972 411.328C168.572 426.396 171.401 450.773 171.401 450.773L182.754 457.726Z" fill="#D4E2E5"/>
                    <path d="M212.291 475.82L213.828 424.158L229.387 405.782C229.387 405.782 250.181 401.289 249.74 424.852C249.3 448.415 256.027 502.845 256.027 502.845L240.822 493.295C240.822 493.295 237.068 434.96 226.059 428.844C215.051 422.728 218.72 427.621 218.72 427.621L212.291 475.82Z" fill="#D4E2E5"/>
                    <path d="M196.087 343.381L184.031 336.492H185.348C187.228 336.492 188.752 334.968 188.752 333.087V303.201C188.752 301.321 187.228 299.797 185.348 299.797H172.586C170.706 299.797 169.182 301.321 169.182 303.201V333.087C169.182 334.968 170.706 336.492 172.586 336.492H179.101L194.873 345.504L196.087 343.381V343.381Z" fill="#3F3D56"/>
                    <path d="M212.374 388.163L202.97 385.459C200.698 384.805 198.326 386.117 197.672 388.39C197.019 390.662 198.331 393.034 200.604 393.687L210.008 396.392C212.28 397.045 214.652 395.733 215.305 393.46C215.959 391.188 214.646 388.816 212.374 388.163Z" fill="#3F3D56"/>
                    <path d="M595.492 301.327L555.281 299.591C552.919 299.489 550.921 301.321 550.819 303.683C550.717 306.046 552.55 308.043 554.912 308.145L595.123 309.881C597.485 309.983 599.482 308.151 599.584 305.788C599.686 303.426 597.854 301.429 595.492 301.327Z" fill="#3F3D56"/>
                    <path d="M633.41 382.055L593.199 380.319C590.837 380.217 588.839 382.05 588.737 384.412C588.635 386.774 590.468 388.772 592.83 388.874L633.041 390.609C635.403 390.711 637.4 388.879 637.502 386.517C637.604 384.155 635.772 382.157 633.41 382.055Z" fill="#3F3D56"/>
                    <path d="M469.468 475.322C520.809 475.322 562.429 433.702 562.429 382.361C562.429 331.02 520.809 289.4 469.468 289.4C418.128 289.4 376.508 331.02 376.508 382.361C376.508 433.702 418.128 475.322 469.468 475.322Z" fill="#3F3D56"/>
                    <path d="M469.468 437.403C499.867 437.403 524.511 412.76 524.511 382.361C524.511 351.962 499.867 327.318 469.468 327.318C439.069 327.318 414.426 351.962 414.426 382.361C414.426 412.76 439.069 437.403 469.468 437.403Z" fill="#E9F1F2"/>
                    <path d="M592.633 197.746C593.101 203.172 596.28 207.329 599.733 207.031C603.187 206.733 605.606 202.092 605.137 196.664C604.98 194.493 604.304 192.392 603.168 190.535L600.896 167.568L590.141 168.865L593.523 191.368C592.721 193.392 592.416 195.579 592.633 197.746Z" fill="#FFCACA"/>
                    <path d="M561.506 64.7967C561.506 64.7967 573.372 61.4541 577.934 67.1135C582.496 72.7729 599.511 128.35 599.511 128.35L604.794 188.164L587.947 183.066L581.391 135.894L570.382 111.431L561.506 64.7967Z" fill="#FF9BAD"/>
                    <path d="M557.633 28.8164H521.467V63.1123H557.633V28.8164Z" fill="#2F2E41"/>
                    <path d="M539.165 46.2876C548.904 46.2876 556.799 38.3925 556.799 28.6535C556.799 18.9145 548.904 11.0195 539.165 11.0195C529.426 11.0195 521.531 18.9145 521.531 28.6535C521.531 38.3925 529.426 46.2876 539.165 46.2876Z" fill="#FFCACA"/>
                    <path d="M530.818 0.131401C519.548 1.87581 520.085 6.06369 516.476 8.23769C510.119 12.0678 507.61 23.1281 510.968 30.4266C511.865 32.3767 513.757 35.037 512.839 37.9094C512.134 40.1143 510.102 41.4151 509.721 41.6507C506.598 43.5788 508.638 41.285 507.226 42.8978C505.669 44.678 508.082 47.1926 506.603 50.3806C505.292 53.2068 502.589 52.9683 502.238 54.7455C501.633 57.8058 508.572 63.9592 515.956 63.4754C522.531 63.0445 527.415 57.4861 529.051 52.2513C530.147 48.7446 530.619 42.713 527.804 39.78C527.409 39.3687 526.33 38.3725 525.31 36.6622C524.503 35.3088 523.44 33.5271 524.063 32.2973C524.726 30.9871 526.606 31.6767 527.804 30.4266C529.428 28.7313 527.498 25.867 527.804 22.9439C528.321 17.9941 535.335 12.0408 542.769 12.9669C551.204 14.0175 554.297 23.1887 554.617 24.191C555.28 26.2683 555.267 28.2779 555.241 32.2973C555.203 38.0654 555.179 41.6806 553.37 45.3921C550.768 50.7302 547.454 50.1535 546.511 54.1219C545.041 60.3093 551.956 66.5233 552.746 67.2167C558.61 72.3568 567.466 73.9023 568.959 71.5816C570.304 69.4904 564.398 66.2373 564.594 59.734C564.764 54.0982 569.325 52.3803 568.335 48.5099C567.247 44.2495 561.437 45.2213 558.982 40.4036C556.691 35.9067 560.913 33.4117 560.229 24.191C560.084 22.2405 559.472 16.6424 555.864 11.0962C554.275 8.65281 552.658 6.16778 549.629 4.8606C546.237 3.39723 536.78 -0.791319 530.818 0.131389V0.131401Z" fill="#2F2E41"/>
                    <path d="M523.337 15.7202C523.794 19.5815 529.593 21.4738 532.067 21.9558C533.115 22.16 536.656 22.8498 540.173 21.3323C541.473 20.7713 541.947 20.2641 543.291 20.0851C545.111 19.8429 546.027 20.535 548.903 21.3323C552.101 22.2188 553.7 22.6621 554.515 21.9558C555.848 20.8013 554.824 17.0242 553.268 14.4731C550.391 9.75596 545.124 8.29525 542.667 7.61391C539.861 6.83552 534.166 5.25592 528.949 8.23747C528.252 8.6361 522.872 11.7971 523.337 15.7202V15.7202Z" fill="#2F2E41"/>
                    <path d="M609.17 362.666L618.17 362.878L623.187 322.443L609.905 322.129L609.17 362.666Z" fill="#FFB6B6"/>
                    <path d="M640.05 381.443C640.05 382.963 638.971 384.196 637.64 384.196H619.775C619.775 384.196 618.017 377.129 610.849 374.088L610.354 384.196H601.139L602.255 367.942C602.255 367.942 599.79 359.247 604.91 354.802C610.03 350.357 605.883 350.976 605.883 350.976L607.897 340.916L621.823 342.554L621.925 358.345L628.684 374.019L638.596 378.916C639.479 379.352 640.05 380.345 640.05 381.443L640.05 381.443H640.05Z" fill="#2F2E41"/>
                    <path d="M568.252 283.469L577.053 281.575L572.492 241.086L559.504 243.881L568.252 283.469Z" fill="#FFB6B6"/>
                    <path d="M602.661 294.521C603.016 295.999 602.254 297.449 600.96 297.76L583.589 301.931C583.589 301.931 580.23 295.469 572.55 294.185L574.428 304.13L565.467 306.281L562.759 290.216C562.759 290.216 558.332 282.336 562.272 276.819C566.213 271.302 562.325 272.871 562.325 272.871L561.935 262.62L575.859 260.961L579.645 276.292L589.875 289.956L600.657 292.403C601.617 292.621 602.404 293.453 602.661 294.521H602.661V294.521Z" fill="#2F2E41"/>
                    <path d="M551.422 48.4375L529.405 49.6607L523.29 61.8923L500.049 74.124L503.719 134.44L495.334 164.777L496.38 173.201L578.332 170.754L573.439 80.2398L574.663 65.5618L558.761 60.6692L551.422 48.4375Z" fill="#FF9BAD"/>
                    <path d="M496.99 161.581C496.99 161.581 478.643 193.999 496.99 198.584C505.152 200.623 513.799 201.998 520.883 202.895C529.365 203.969 537.172 198.147 538.578 189.714L558.149 256.988L577.719 252.095L581.389 217.076L605.168 240.855L602.183 336.494L624.2 335.27L647.44 231.301C647.44 231.301 648.663 223.962 630.316 214.177C611.968 204.392 578.943 172.589 578.943 172.589L522.677 155.465L496.99 161.581Z" fill="#2F2E41"/>
                    <path d="M535.519 182.987L503.717 162.193L542.858 120.606C542.858 120.606 564.875 112.044 570.991 145.069C577.107 178.095 580.776 207.451 580.776 207.451L535.519 182.987Z" fill="#2F2E41"/>
                    <path d="M469.905 120.907L471.299 111.43C472.315 104.523 467.734 98.4956 461.521 97.0118V93.0826C461.521 89.705 458.782 86.9668 455.405 86.9668C452.027 86.9668 449.289 89.705 449.289 93.0826V98.3238L426.049 103.253V96.7521C426.049 93.3745 423.311 90.6363 419.933 90.6363C416.555 90.6363 413.817 93.3745 413.817 96.7521V102.931L411.507 102.328C404.607 100.528 399.156 108.445 403.448 114.139C403.503 114.213 403.559 114.287 403.617 114.36C409.345 121.726 410.982 128.273 410.982 128.273L406.89 150.369L411.551 196.308C412.151 202.229 417.247 206.666 423.195 206.445L468.443 204.77C474.386 204.549 479.143 199.758 479.305 193.813C479.881 172.64 479.948 126.556 469.905 120.907V120.907Z" fill="#3F3D56"/>
                    <path d="M429.396 200.285C428.762 200.285 428.225 199.796 428.178 199.153L425.722 166.418C425.672 165.745 426.177 165.157 426.85 165.107C427.518 165.055 428.111 165.562 428.161 166.235L430.617 198.971C430.667 199.644 430.162 200.232 429.489 200.282C429.457 200.284 429.426 200.285 429.396 200.285Z" fill="#FFB6B6"/>
                    <path d="M410.981 129.496C410.384 129.496 409.862 129.059 409.773 128.451C409.675 127.782 410.137 127.161 410.806 127.063L469.92 118.4C470.588 118.303 471.21 118.764 471.307 119.432C471.405 120.101 470.943 120.722 470.275 120.82L411.16 129.483C411.1 129.492 411.04 129.496 410.981 129.496Z" fill="#FFB6B6"/>
                    <path d="M63.7233 483.903C63.3112 483.208 61.5283 483.952 61.2006 483.322C60.874 482.693 62.5304 481.736 63.4768 479.549C63.6474 479.154 64.7229 476.669 63.9267 475.902C62.4177 474.448 55.512 480.447 53.0953 478.484C52.5649 478.053 52.1944 477.193 50.5892 475.797C49.9506 475.241 49.5645 474.99 49.1908 475.084C48.6605 475.216 48.6185 475.926 48.0499 477.321C47.1972 479.414 46.6928 479.287 46.196 480.957C45.8272 482.196 45.9114 482.917 45.4774 483.057C44.8633 483.256 44.298 481.941 43.5196 482.059C42.7254 482.179 42.2452 483.71 42.0935 484.856C41.8089 487.007 42.5987 488.426 43.0365 489.918C43.5122 491.539 43.7945 494.006 42.6959 497.497L31.8223 528.134C34.2228 521.847 41.1736 504.614 44.0943 498.21C44.9375 496.361 45.8685 494.486 47.78 493.746C49.6204 493.034 52.1479 493.459 55.3702 492.683C55.7466 492.592 56.7909 492.326 56.9223 491.712C57.031 491.204 56.4167 490.921 56.5111 490.445C56.6377 489.807 57.8457 489.799 59.3301 489.063C60.3768 488.544 61.0289 487.927 61.5897 487.396C61.7587 487.236 64.2719 484.828 63.7233 483.903Z" fill="#FFE5EA"/>
                    <path d="M20.942 500.034C20.4821 500.035 20.3329 501.125 19.9288 501.104C19.5261 501.083 19.5341 499.994 18.7337 498.898C18.5894 498.701 17.6798 497.456 17.0736 497.625C15.9247 497.946 16.8766 503.067 15.2158 503.686C14.8513 503.822 14.3222 503.756 13.1737 504.141C12.7168 504.294 12.4823 504.411 12.4202 504.622C12.3322 504.92 12.6684 505.145 13.1892 505.827C13.9703 506.849 13.7627 507.061 14.4388 507.786C14.9407 508.325 15.3187 508.491 15.2624 508.745C15.1827 509.104 14.3743 509.002 14.2075 509.418C14.0373 509.842 14.6501 510.52 15.1688 510.925C16.1422 511.685 17.0666 511.707 17.9253 511.922C18.8585 512.157 20.1504 512.73 21.5469 514.276L33.4462 528.453C31.0533 525.461 24.6007 517.077 22.3004 513.796C21.6363 512.849 20.9846 511.851 21.1729 510.699C21.3542 509.59 22.2923 508.472 22.841 506.667C22.9051 506.456 23.076 505.867 22.8125 505.625C22.5946 505.425 22.2782 505.645 22.072 505.461C21.7954 505.215 22.1401 504.62 22.2072 503.679C22.2545 503.015 22.1397 502.517 22.041 502.089C22.0112 501.96 21.5543 500.031 20.942 500.034Z" fill="#FFE5EA"/>
                    <path d="M30.1189 502.094L29.8418 499.62L29.9684 499.433C30.5543 498.566 30.8529 497.719 30.8565 496.915C30.8571 496.787 30.8512 496.659 30.8452 496.529C30.8213 496.013 30.7914 495.372 31.1259 494.624C31.3134 494.207 31.8402 493.242 32.6321 493.361C32.8454 493.391 33.0066 493.489 33.1291 493.604L33.1852 493.515C33.4319 493.139 33.6272 492.978 33.8153 492.822C33.9598 492.703 34.1091 492.58 34.3433 492.289C34.446 492.161 34.526 492.048 34.5935 491.954C34.7984 491.669 35.0659 491.328 35.5378 491.334C36.0418 491.358 36.3058 491.775 36.4808 492.051C36.7932 492.543 36.9347 492.898 37.0285 493.133C37.0625 493.219 37.1014 493.316 37.1211 493.346C37.2835 493.585 38.604 493.361 39.1015 493.28C40.219 493.094 41.1859 492.932 41.5843 493.637C41.8698 494.141 41.6578 494.808 40.9351 495.671C40.71 495.94 40.4705 496.144 40.2578 496.304C40.434 496.41 40.5917 496.571 40.6556 496.824C40.8061 497.424 40.2907 498.024 39.1243 498.612C38.8346 498.759 38.4446 498.955 37.8981 499.049C37.6407 499.094 37.409 499.104 37.2107 499.11C37.2065 499.225 37.1796 499.349 37.1097 499.477C36.9049 499.853 36.4785 500.032 35.8358 499.989C35.1287 499.952 34.5464 499.817 34.0327 499.699C33.5842 499.596 33.1978 499.509 32.8944 499.53C32.3318 499.575 31.8982 500.025 31.3893 500.609L30.1189 502.094Z" fill="#FFE5EA"/>
                    <path d="M31.4039 487.364L29.0813 488.259L28.8678 488.184C27.8803 487.838 26.9854 487.764 26.2069 487.964C26.0831 487.996 25.9609 488.034 25.8365 488.073C25.3434 488.227 24.7306 488.418 23.9224 488.285C23.4716 488.209 22.4044 487.944 22.3191 487.148C22.2939 486.934 22.3477 486.753 22.4276 486.606L22.3278 486.574C21.9013 486.431 21.6958 486.283 21.4978 486.14C21.3456 486.031 21.1888 485.917 20.8474 485.765C20.6978 485.698 20.5688 485.649 20.4605 485.608C20.1323 485.482 19.7352 485.309 19.6213 484.851C19.5165 484.358 19.8528 483.997 20.0753 483.757C20.4721 483.33 20.7794 483.104 20.9832 482.953C21.0578 482.898 21.1415 482.836 21.1654 482.81C21.3553 482.592 20.8043 481.371 20.5995 480.911C20.1358 479.877 19.7346 478.983 20.3153 478.418C20.7304 478.014 21.4289 478.05 22.4476 478.53C22.7647 478.68 23.023 478.86 23.2318 479.025C23.2888 478.828 23.4048 478.634 23.6335 478.508C24.1754 478.211 24.8873 478.557 25.7516 479.536C25.9672 479.779 26.2556 480.107 26.4855 480.611C26.5936 480.849 26.6628 481.071 26.7188 481.261C26.8308 481.236 26.9578 481.23 27.0991 481.265C27.5151 481.368 27.7965 481.735 27.918 482.368C28.0615 483.061 28.0786 483.659 28.0945 484.185C28.1089 484.645 28.1226 485.041 28.2192 485.33C28.4058 485.862 28.9514 486.168 29.6455 486.512L31.4039 487.364Z" fill="#FFE5EA"/>
                    <path d="M30.1189 480.077L29.8418 477.603L29.9684 477.415C30.5543 476.548 30.8529 475.701 30.8565 474.897C30.8571 474.769 30.8512 474.642 30.8452 474.511C30.8213 473.995 30.7914 473.354 31.1259 472.606C31.3134 472.189 31.8402 471.224 32.6321 471.344C32.8454 471.373 33.0066 471.471 33.1291 471.586L33.1852 471.498C33.4319 471.121 33.6272 470.96 33.8153 470.805C33.9598 470.685 34.1091 470.562 34.3433 470.271C34.446 470.143 34.526 470.031 34.5935 469.936C34.7984 469.651 35.0659 469.311 35.5378 469.316C36.0418 469.34 36.3058 469.757 36.4808 470.033C36.7932 470.525 36.9347 470.88 37.0285 471.115C37.0625 471.201 37.1014 471.298 37.1211 471.328C37.2835 471.567 38.604 471.344 39.1015 471.262C40.219 471.076 41.1859 470.915 41.5843 471.62C41.8698 472.124 41.6578 472.79 40.9351 473.654C40.71 473.923 40.4705 474.127 40.2578 474.287C40.434 474.392 40.5917 474.553 40.6556 474.806C40.8061 475.406 40.2907 476.007 39.1243 476.595C38.8346 476.741 38.4446 476.937 37.8981 477.032C37.6407 477.076 37.409 477.087 37.2107 477.093C37.2065 477.207 37.1796 477.332 37.1097 477.459C36.9049 477.836 36.4785 478.015 35.8358 477.972C35.1287 477.935 34.5464 477.8 34.0327 477.682C33.5842 477.579 33.1978 477.492 32.8944 477.512C32.3318 477.557 31.8982 478.008 31.3893 478.592L30.1189 480.077Z" fill="#FFE5EA"/>
                    <path d="M32.6485 528.094L32.13 527.769L32.0046 527.171L32.13 527.769L31.5256 527.839C31.5161 527.783 31.4832 527.654 31.4336 527.452C31.1631 526.346 30.3383 522.979 29.6503 517.678C29.1701 513.978 28.8983 510.173 28.8422 506.369C28.786 502.558 28.9664 499.674 29.111 497.355C29.2203 495.606 29.3528 493.941 29.483 492.319C29.8294 487.985 30.1561 483.892 29.9131 479.36C29.8593 478.348 29.7464 476.242 28.5161 474.001C27.8024 472.702 26.8193 471.548 25.5938 470.573L26.3558 469.615C27.7086 470.693 28.7962 471.971 29.5888 473.414C30.9529 475.898 31.0759 478.193 31.135 479.295C31.3823 483.907 31.052 488.04 30.702 492.416C30.573 494.032 30.4404 495.69 30.3317 497.432C30.1884 499.729 30.0098 502.588 30.0654 506.35C30.1203 510.109 30.3891 513.867 30.8627 517.521C31.5424 522.755 32.3552 526.071 32.6222 527.16C32.7644 527.742 32.7942 527.864 32.6485 528.094H32.6485Z" fill="#F2F2F2"/>
                    <path d="M23.3521 472.516C23.3019 472.516 23.2511 472.515 23.1998 472.512C22.1582 472.455 21.1936 471.832 20.3324 470.659C19.9286 470.107 19.722 469.477 19.3099 468.222C19.246 468.029 18.9354 467.047 18.7467 465.696C18.6231 464.813 18.6386 464.444 18.8136 464.118C19.0077 463.755 19.3218 463.501 19.6754 463.331C19.6599 463.214 19.6724 463.093 19.7232 462.97C19.9316 462.46 20.4859 462.527 20.7857 462.559C20.9374 462.578 21.1267 462.603 21.331 462.592C21.6523 462.577 21.8249 462.481 22.0865 462.338C22.3368 462.201 22.6479 462.03 23.1096 461.935C24.0198 461.745 24.7825 462.003 25.0339 462.088C26.3568 462.529 27.009 463.558 27.764 464.748C27.9145 464.987 28.4311 465.857 28.7721 467.049C29.0182 467.909 28.9835 468.291 28.9095 468.576C28.759 469.16 28.4036 469.494 27.5012 470.232C26.5587 471.005 26.0857 471.392 25.6796 471.628C24.7341 472.173 24.1405 472.516 23.3521 472.516Z" fill="#FFE5EA"/>
                    <path d="M747.73 344.551L748.292 300.842L731.513 296.227L732.021 344.557L728.161 380.272L728.261 380.309C726.643 381.936 725.33 384.534 724.771 387.604C723.751 393.207 725.62 398.24 728.947 398.845C732.274 399.451 735.797 395.4 736.817 389.797C737.236 387.498 737.161 385.3 736.705 383.459L736.855 383.515L747.73 344.551Z" fill="#FFBCBC"/>
                    <path d="M717.217 241.807C717.217 241.807 724.832 235.984 730.207 244.494C735.581 253.005 750.362 296.003 750.362 296.003C750.362 296.003 754.637 315.711 753.619 318.623C752.602 321.534 751.258 347.158 751.258 347.158L730.258 343.349L730.766 318.623L710.754 286.68L717.217 241.807Z" fill="#769298"/>
                    <path d="M576.573 225.932L606.002 258.253L621.413 250.171L588.047 215.202L566.486 186.47L566.387 186.511C566.459 184.218 565.645 181.423 563.957 178.798C560.878 174.008 556.075 171.607 553.231 173.435C550.387 175.264 550.578 180.629 553.657 185.42C554.921 187.386 556.476 188.941 558.067 189.975L557.919 190.036L576.573 225.932H576.573Z" fill="#FFBCBC"/>
                    <path d="M670.694 280.175C670.694 280.175 669.106 289.629 659.369 287.079C649.631 284.53 609.476 263.202 609.476 263.202C609.476 263.202 592.898 251.719 591.654 248.897C590.41 246.075 573.898 226.434 573.898 226.434L591.844 214.881L608.353 233.295L644.783 242.974L670.694 280.175Z" fill="#769298"/>
                    <path d="M676.272 217.099C689.18 217.099 699.644 206.635 699.644 193.727C699.644 180.819 689.18 170.355 676.272 170.355C663.364 170.355 652.9 180.819 652.9 193.727C652.9 206.635 663.364 217.099 676.272 217.099Z" fill="#FFBCBC"/>
                    <path d="M717.269 603.163L702.764 603.162L695.863 547.211L717.272 547.212L717.269 603.163Z" fill="#FFBCBC"/>
                    <path d="M667.573 602.835C667.121 603.595 666.883 606.051 666.883 606.935C666.883 609.654 669.087 611.858 671.806 611.858H716.728C718.583 611.858 720.087 610.355 720.087 608.5V606.629C720.087 606.629 722.309 601.008 717.734 594.08C717.734 594.08 712.048 599.505 703.551 591.008L701.045 586.469L682.907 599.734L672.854 600.971C670.654 601.242 668.704 600.929 667.573 602.835H667.573Z" fill="#2F2E41"/>
                    <path d="M675.683 603.163L661.178 603.162L654.277 547.211L675.686 547.212L675.683 603.163Z" fill="#FFBCBC"/>
                    <path d="M625.985 602.835C625.533 603.595 625.295 606.051 625.295 606.935C625.295 609.654 627.499 611.858 630.218 611.858H675.141C676.996 611.858 678.499 610.355 678.499 608.5V606.629C678.499 606.629 680.722 601.008 676.146 594.08C676.146 594.08 670.46 599.505 661.963 591.008L659.457 586.469L641.319 599.734L631.266 600.971C629.067 601.242 627.116 600.929 625.985 602.835H625.985Z" fill="#2F2E41"/>
                    <path d="M727.561 360.344L633.377 365.236L654.171 578.067L676 577L682.304 448.412L685.362 402.543L697.834 573.324L718.999 573.175L727.561 360.344Z" fill="#2F2E41"/>
                    <path d="M699.658 223.35L663.986 222.127L640.102 245.878V323.683L630.775 372.576C630.775 372.576 693.507 366.461 705.808 378.692C718.108 390.924 740.249 382.362 740.249 382.362L729.178 317.674L724.258 242.921L699.658 223.35Z" fill="#769298"/>
                    <path d="M686.56 216.623L666.677 211.925L663.609 199.871C663.609 199.871 663.535 194.188 660.853 193.555C658.17 192.921 653.438 188.97 653.438 188.97L658.022 181.556C658.022 181.556 646.974 180.362 650.291 178.313C653.607 176.264 654.087 177.187 654.558 172.24C655.532 162.004 686.853 163.498 689.286 169.115C689.286 169.115 693.31 170.065 695.359 173.382C697.408 176.698 698.433 178.356 699.774 178.673C701.115 178.99 701.823 181.99 701.823 181.99C701.823 181.99 706.555 185.94 704.897 186.965C703.238 187.989 701.971 193.355 701.971 193.355C701.971 193.355 706.386 198.646 696.51 210.476L691.248 218.94L686.56 216.623V216.623Z" fill="#2F2E41"/>
                    <path d="M712.093 250.995L713.487 241.518C714.502 234.611 709.921 228.583 703.708 227.1V223.171C703.708 219.793 700.97 217.055 697.592 217.055C694.215 217.055 691.476 219.793 691.476 223.171V228.412L668.236 233.341V226.84C668.236 223.462 665.498 220.724 662.12 220.724C658.743 220.724 656.005 223.462 656.005 226.84V233.019L653.694 232.416C646.794 230.616 641.344 238.533 645.635 244.227C645.691 244.301 645.747 244.375 645.804 244.448C651.533 251.814 653.17 258.361 653.17 258.361L649.078 280.457L653.738 326.396C654.339 332.317 659.435 336.754 665.382 336.533L710.631 334.857C716.573 334.637 721.331 329.846 721.492 323.901C722.069 302.727 722.135 256.644 712.093 250.995V250.995Z" fill="#3F3D56"/>
                    <path d="M671.583 330.373C670.949 330.373 670.413 329.884 670.365 329.241L667.91 296.506C667.859 295.832 668.364 295.245 669.038 295.195C669.706 295.143 670.299 295.65 670.349 296.323L672.804 329.059C672.855 329.732 672.35 330.319 671.676 330.37C671.645 330.372 671.614 330.373 671.583 330.373Z" fill="#FFB6B6"/>
                    <path d="M653.169 259.584C652.572 259.584 652.049 259.147 651.96 258.539C651.862 257.87 652.325 257.249 652.993 257.151L712.108 248.487C712.776 248.391 713.397 248.852 713.495 249.52C713.593 250.188 713.131 250.81 712.462 250.908L653.348 259.571C653.287 259.58 653.228 259.584 653.169 259.584Z" fill="#FFB6B6"/>
                    <path d="M655.867 332.333L632.766 276.559L638.881 279.005L663.484 328.423L655.867 332.333Z" fill="#3F3D56"/>
                    <path d="M800.001 611.783C800.001 612.351 799.541 612.811 798.973 612.811H86.8457V610.756H798.973C799.541 610.756 800.001 611.216 800.001 611.783Z" fill="#E9F1F2"/>
                    <path d="M547.58 175.731C551.547 179.463 556.689 180.441 559.063 177.916C561.438 175.391 560.147 170.32 556.178 166.587C554.613 165.075 552.708 163.959 550.623 163.333L533.615 147.732L526.465 155.87L543.991 170.385C544.743 172.428 545.974 174.261 547.58 175.731Z" fill="#FFCACA"/>
                    <path d="M533.027 94.9082C533.027 94.9082 512.291 69.0763 504.331 71.0664C494.545 73.5127 496.992 83.2981 486.87 109.469C484.335 116.023 481.673 122.376 486.789 127.194L500.894 140.478L530.964 165.832L543.061 153.169L519.029 122.178L533.027 94.9082Z" fill="#FF9BAD"/>
                    </g>
                    </svg>