<svg width="800" height="593" viewBox="0 0 800 593" fill="none" xmlns="http://www.w3.org/2000/svg">
<g clip-path="url(#clip0_114_151)">
<path d="M724.4 589.87H554.773V584.665C554.773 580.145 556.568 575.811 559.764 572.615C562.96 569.419 567.294 567.624 571.814 567.624H707.359C711.879 567.624 716.213 569.419 719.409 572.615C722.605 575.811 724.4 580.145 724.4 584.665V589.87Z" fill="#E1E2E6"/>
<path d="M635.925 568.663L641.083 566.585C587.11 432.612 592.309 263.595 637.935 118.607C643.355 101.808 643.745 83.7915 639.059 66.7734C634.373 49.7553 624.815 34.4782 611.559 22.8217C585.077 -0.810879 548.567 -6.56797 516.272 7.79554C484.394 21.9758 480 46.6756 480 71.2551H485.562C485.562 45.0177 491.169 25.0491 518.532 12.8771C548.8 -0.584124 583.027 4.81519 607.856 26.9718C620.306 37.9198 629.284 52.2685 633.686 68.2526C638.088 84.2367 637.72 101.159 632.63 116.937C586.477 263.599 581.583 433.777 635.925 568.663Z" fill="#E1E2E6"/>
<path d="M483.864 153.288C494.614 153.288 503.329 144.573 503.329 133.823C503.329 123.072 494.614 114.357 483.864 114.357C473.113 114.357 464.398 123.072 464.398 133.823C464.398 144.573 473.113 153.288 483.864 153.288Z" fill="#E1E2E6"/>
<path d="M453.885 167.756V130.874H459.62V167.756C461.265 168.422 462.627 169.639 463.473 171.198C464.319 172.758 464.597 174.564 464.258 176.306C463.919 178.047 462.985 179.617 461.615 180.746C460.246 181.874 458.527 182.492 456.752 182.492C454.978 182.492 453.258 181.874 451.889 180.746C450.52 179.617 449.585 178.047 449.246 176.306C448.907 174.564 449.185 172.758 450.031 171.198C450.877 169.639 452.24 168.422 453.885 167.756Z" fill="#E1E2E6"/>
<path d="M426.162 102.539C426.172 94.0601 429.544 85.9318 435.539 79.9366C441.534 73.9415 449.663 70.5692 458.141 70.5596H510.976C519.457 70.5596 527.591 73.9288 533.588 79.926C539.586 85.9232 542.955 94.0572 542.955 102.539C542.955 111.02 539.586 119.154 533.588 125.151C527.591 131.148 519.457 134.518 510.976 134.518H458.141C449.663 134.508 441.534 131.136 435.539 125.14C429.544 119.145 426.172 111.017 426.162 102.539Z" fill="#6C63FF"/>
<path d="M351.721 300.573C357.026 232.704 384.148 200.368 366.781 180.09C350.146 160.666 303.286 164.678 273.192 183.317C192.021 233.591 162.283 433.96 266.737 531.857C365.995 624.883 554.109 595.089 595.914 518.948C605.668 501.182 613.417 470.038 599.141 451.176C563.697 404.349 434.833 489.166 377.539 436.116C343.584 404.676 348.81 337.819 351.721 300.573Z" fill="#3F3D56"/>
<path d="M413.768 266.855C411.797 267.762 410.257 269.402 409.476 271.427C408.696 273.452 408.736 275.702 409.589 277.697C409.769 278.1 409.981 278.487 410.225 278.855L392.803 302.118L401.496 315.112L421.917 280.664C423.364 279.536 424.397 277.96 424.854 276.183C425.311 274.407 425.168 272.528 424.445 270.842C424.025 269.886 423.42 269.022 422.666 268.3C421.912 267.578 421.023 267.012 420.05 266.633C419.077 266.254 418.039 266.071 416.996 266.094C415.952 266.116 414.923 266.344 413.967 266.764C413.9 266.794 413.834 266.824 413.768 266.855Z" fill="#FFB6B6"/>
<path d="M413.755 306.963C414.895 307.975 411.732 309.222 408.387 307.254C407.429 306.684 407.021 306.447 406.913 306.598C406.644 306.974 408.215 309.75 407.795 315.914C407.537 319.593 401.427 326.51 394.488 333.254C385.108 342.377 374.2 351.176 374.2 351.176L370.37 348.11L330.213 315.914L323.436 306.533C324.056 302.829 324.988 299.183 326.222 295.636C327.921 290.725 329.941 285.932 332.267 281.285C333.515 278.758 334.795 276.348 336.022 274.132L357.537 297.841L375.566 317.699C375.566 317.699 380.816 309.244 384.882 306.942C385.4 306.611 385.99 306.408 386.603 306.35C390.712 306.157 390.96 303.919 386.194 299.046C381.429 294.173 387.442 298.723 391.68 297.411C395.919 296.098 391.68 297.411 392.573 294.13C393.466 290.849 405.353 284.265 405.353 284.265L405.848 284.706L414.83 292.635L417.401 294.904C417.401 294.904 414.594 302.607 413.819 304.231C413.045 305.855 412.625 305.941 413.755 306.963Z" fill="#6C63FF"/>
<path d="M650.543 456.4L650.981 444.534L605.422 437.199L604.775 454.711L650.543 456.4Z" fill="#FFB6B6"/>
<path d="M642.272 459.973L641.84 440.975L649.962 441.274L663.074 423.711C663.721 422.844 664.629 422.206 665.665 421.891C666.701 421.576 667.81 421.6 668.831 421.96C669.852 422.32 670.731 422.997 671.34 423.892C671.948 424.787 672.255 425.853 672.215 426.935L671.383 449.504L663.205 453.097L671.183 454.913L670.869 463.422L642.272 459.973Z" fill="#2F2E41"/>
<path d="M394.131 461.02L538.434 464.679C538.434 464.679 600.749 468.279 615.369 458.767L630.787 456.821L631.623 434.174C631.623 434.174 622.195 434.243 616.774 431.718C611.354 429.192 615.121 426.102 609.953 429.14C604.785 432.179 605.331 432.545 601.335 431.148C597.339 429.752 414.102 401.822 414.102 401.822L394.131 461.02Z" fill="#2F2E41"/>
<path d="M584.284 451.192L592.676 442.792L564.265 406.428L551.881 418.827L584.284 451.192Z" fill="#FFB6B6"/>
<path d="M575.791 443.885L588.396 429.663L594.146 435.407L615.703 431.449C616.768 431.253 617.868 431.403 618.841 431.877C619.815 432.35 620.611 433.122 621.115 434.081C621.618 435.039 621.802 436.133 621.64 437.203C621.478 438.274 620.977 439.264 620.212 440.03L604.253 456.008L595.814 453.081L600.428 459.838L594.41 465.863L575.791 443.885Z" fill="#2F2E41"/>
<path d="M337.199 381.991L338.634 415.339C340.323 454.596 383.556 478.356 417.08 457.859C417.698 457.481 418.318 457.09 418.94 456.685C418.94 456.685 431.649 453.272 431.263 447.867C430.877 442.462 433.982 439.831 436.73 441.305C439.477 442.779 475.452 391.724 475.452 391.724C475.452 391.724 550.196 429.008 566.685 437.785C566.685 437.785 582.188 413.545 581.064 413.799C579.94 414.053 488.597 350.121 488.597 350.121C488.597 350.121 473.716 335.06 455.257 345.004C454.872 346.465 455.201 346.516 455.201 346.516L394.223 396.203L385.607 379.84L337.199 381.991Z" fill="#2F2E41"/>
<path d="M394.691 340.301C394.576 341.841 394.356 343.372 394.035 344.883C393.596 347.071 392.888 349.195 391.927 351.209C391.927 351.209 391.927 353.457 387.624 360.987C383.321 368.517 388.7 365.29 391.927 370.884C395.154 376.467 391.927 373.896 388.345 377.489C387.313 378.534 386.581 379.837 386.223 381.262C385.866 382.686 385.896 384.18 386.311 385.589C386.311 385.589 340.098 385.621 331.492 382.394C322.886 379.167 320.928 360.987 328.641 359.191C336.343 357.394 326.307 355.608 321.778 351.467C317.249 347.325 326.307 340.548 326.307 340.548C326.307 340.548 322.574 334.104 322.886 312.471C322.93 310.481 323.113 308.497 323.434 306.533C324.055 302.829 324.987 299.183 326.221 295.636C327.92 290.725 329.939 285.932 332.266 281.285C333.514 278.758 334.794 276.348 336.021 274.132C336.214 273.788 336.397 273.454 336.591 273.121C338.925 268.99 341.055 265.612 342.464 263.45C343.551 261.772 344.207 260.825 344.207 260.825L352.038 247.206L378.179 259.459L376.694 279.5L381.202 294.614L383.278 301.574L384.881 306.942L387.355 315.257C387.355 315.257 386.677 315.29 387.484 316.398C391.2 321.338 393.608 327.136 394.487 333.254C394.797 335.59 394.865 337.951 394.691 340.301Z" fill="#6C63FF"/>
<path d="M470.184 342.461L469.693 342.302L407.127 322.154L430.182 246.517C430.641 245.011 431.436 243.629 432.507 242.475C433.578 241.32 434.897 240.424 436.365 239.854C437.833 239.284 439.411 239.054 440.98 239.182C442.549 239.31 444.069 239.793 445.425 240.594L485.407 264.216C488.572 266.084 490.98 269.004 492.21 272.467C493.44 275.93 493.414 279.715 492.137 283.161L470.184 342.461Z" fill="#2F2E41"/>
<path d="M470.437 347.269L407.367 326.959L430.422 251.322C430.882 249.816 431.677 248.434 432.748 247.279C433.819 246.125 435.138 245.229 436.605 244.659C438.073 244.088 439.651 243.859 441.22 243.987C442.79 244.115 444.31 244.598 445.665 245.398L487.556 266.314C493.85 270.031 493.703 279.652 490.78 287.546L470.437 347.269Z" fill="#6C63FF"/>
<path d="M464.123 352.744C462.671 353.563 461.064 354.071 459.405 354.236C457.746 354.401 456.07 354.22 454.485 353.702L414.172 340.72C411.079 339.71 408.504 337.53 406.997 334.646C405.489 331.763 405.169 328.404 406.104 325.288L426.315 258.982C426.719 257.658 427.383 256.427 428.269 255.363C429.155 254.298 430.244 253.421 431.473 252.783C432.703 252.145 434.047 251.759 435.427 251.647C436.807 251.535 438.196 251.701 439.512 252.133L481.288 265.85C483.279 266.503 485.118 267.549 486.698 268.925C488.277 270.301 489.565 271.98 490.485 273.863C491.405 275.745 491.938 277.792 492.053 279.884C492.169 281.976 491.863 284.07 491.156 286.042L469.547 346.287C468.576 349.023 466.65 351.316 464.123 352.744Z" fill="#3F3D56"/>
<path d="M376.702 247.439C392.648 247.439 405.576 234.512 405.576 218.565C405.576 202.619 392.648 189.691 376.702 189.691C360.755 189.691 347.828 202.619 347.828 218.565C347.828 234.512 360.755 247.439 376.702 247.439Z" fill="#FFB6B6"/>
<path d="M279.064 247.874C281.714 253.01 286.058 257.072 291.361 259.37C293.477 260.334 295.702 261.038 297.988 261.467C298.634 258.905 299.668 256.457 301.054 254.208C300.593 256.743 300.593 259.341 301.054 261.876C304.536 262.161 308.04 261.726 311.346 260.598C314.594 259.494 317.539 257.648 319.949 255.207C322.358 252.765 324.166 249.796 325.228 246.535C327.528 238.881 325.051 230.707 324.855 222.718C324.654 214.728 328.448 205.172 336.38 204.184C342.42 203.43 341.673 204.015 346.013 208.282C339.942 215.026 354.742 244.896 362.684 243.576C367.174 242.83 370.478 239.265 371.366 239.389C375.914 250.525 362.235 266.319 373.084 271.504L372.279 270.439C366.6 261.058 383.404 245.213 377.725 235.831C376.142 233.207 374.495 230.13 375.475 227.227C376.405 224.466 381.113 223.593 382.106 226.105C380.491 220.347 384.999 213.588 390.986 213C396.305 212.475 395.998 213.991 401.069 215.375C401.718 213.19 402.651 211.101 403.847 209.16C403.442 211.374 403.392 213.638 403.699 215.867C405.528 216.085 407.378 215.693 408.962 214.752C413.645 211.945 413.784 204.698 410.567 200.288C407.344 195.876 401.946 193.698 396.738 192.05C396.69 181.036 367.053 175.763 361.602 186.003C361.041 177.712 351.537 172.126 343.349 173.535C335.161 174.943 328.702 181.508 324.764 188.826C320.827 196.138 318.872 204.325 315.989 212.113C313.107 219.902 308.987 227.668 302.084 232.289C295.183 236.904 284.927 237.323 279.165 231.341C277.85 233.895 277.156 236.723 277.139 239.596C277.122 242.468 277.781 245.304 279.064 247.874Z" fill="#2F2E41"/>
<path d="M308.692 379.912C309.289 379.434 309.937 379.024 310.624 378.688C321.676 373.188 356.044 358.91 382.917 359.496C434.624 360.623 500.427 417.688 485.113 456.009C473.46 485.168 415.526 501.757 373.236 488.489C313.991 469.901 290.606 394.332 308.692 379.912Z" fill="#3F3D56"/>
<path d="M94.0368 589.979C77.1413 586.792 62.1856 510.675 95.4272 473.187C106.816 460.343 121.023 454.753 139.92 449.55C248.685 419.606 331.642 448.144 342.79 455.112C353.914 462.064 373.413 566.81 348.478 581.637C334.448 589.979 306.64 594.151 292.862 584.418C272.589 570.097 306.618 532.95 291.472 507.947C274.285 479.573 183.779 470.015 138.403 498.214C89.9923 528.299 189.848 608.055 94.0368 589.979Z" fill="#F5F5F7"/>
<path d="M206.998 460.565H142.451C126.517 445.294 115.124 430.577 124.245 418.361C124.245 414.849 125.64 411.481 128.123 408.998C130.606 406.515 133.974 405.12 137.485 405.12H211.963C215.475 405.12 218.842 406.515 221.325 408.998C223.808 411.481 225.203 414.849 225.203 418.361C228.676 432.28 222.472 446.35 206.998 460.565Z" fill="#C2C4CD"/>
<path d="M195.406 388.452C194.794 388.48 194.188 388.319 193.67 387.991C193.152 387.663 192.747 387.184 192.51 386.618C192.274 386.053 192.217 385.428 192.347 384.829C192.478 384.23 192.789 383.685 193.239 383.269L193.444 382.455C193.417 382.389 193.39 382.324 193.363 382.259C192.746 380.802 191.712 379.559 190.391 378.688C189.07 377.816 187.521 377.354 185.939 377.36C184.356 377.366 182.811 377.839 181.496 378.721C180.182 379.602 179.157 380.852 178.551 382.314C176.129 388.149 173.045 393.993 172.285 400.162C171.951 402.889 172.092 405.653 172.702 408.332C167.012 395.92 164.058 382.43 164.039 368.777C164.038 365.351 164.228 361.927 164.609 358.522C164.924 355.731 165.361 352.959 165.92 350.208C168.969 335.278 175.517 321.284 185.025 309.376C189.627 306.865 193.348 303.004 195.688 298.313C196.536 296.627 197.135 294.826 197.467 292.969C196.947 293.037 195.509 285.131 195.901 284.646C195.177 283.548 193.882 283.002 193.092 281.931C189.163 276.603 183.749 277.534 180.923 284.773C174.885 287.82 174.827 292.874 178.532 297.734C180.888 300.826 181.212 305.01 183.28 308.321C183.067 308.593 182.846 308.857 182.633 309.129C178.744 314.13 175.355 319.5 172.513 325.162C173.204 318.819 172.379 312.402 170.107 306.44C167.803 300.883 163.486 296.204 159.684 291.4C155.117 285.63 145.753 288.148 144.948 295.462C144.94 295.533 144.933 295.604 144.925 295.675C145.49 295.993 146.043 296.331 146.583 296.689C147.263 297.143 147.79 297.792 148.094 298.55C148.399 299.308 148.467 300.141 148.29 300.939C148.113 301.737 147.7 302.462 147.103 303.021C146.507 303.58 145.756 303.945 144.948 304.07L144.866 304.083C145.067 306.118 145.422 308.135 145.929 310.116C141.052 328.979 151.582 335.849 166.617 336.157C166.949 336.328 167.273 336.498 167.605 336.66C164.75 344.75 162.959 353.178 162.277 361.73C161.891 366.776 161.914 371.845 162.345 376.887L162.32 376.708C161.23 371.101 158.24 366.042 153.852 362.386C147.336 357.033 138.13 355.062 131.1 350.759C130.353 350.279 129.484 350.023 128.596 350.021C127.708 350.019 126.838 350.271 126.089 350.747C125.339 351.223 124.742 351.903 124.366 352.708C123.991 353.512 123.853 354.407 123.97 355.288C123.979 355.35 123.989 355.413 123.999 355.475C125.047 355.902 126.067 356.394 127.054 356.948C127.619 357.266 128.171 357.604 128.712 357.962C129.392 358.416 129.918 359.065 130.223 359.823C130.527 360.581 130.596 361.414 130.419 362.212C130.242 363.01 129.828 363.735 129.232 364.294C128.636 364.853 127.885 365.218 127.077 365.343L126.994 365.356C126.935 365.364 126.884 365.373 126.824 365.381C128.615 369.657 131.128 373.592 134.253 377.014C137.303 393.48 150.402 395.043 164.413 390.248H164.422C165.959 396.928 168.187 403.431 171.068 409.651H194.811C194.897 409.387 194.973 409.115 195.05 408.851C192.852 408.989 190.646 408.857 188.48 408.459C190.242 406.298 192.003 404.119 193.765 401.958C193.804 401.917 193.841 401.875 193.875 401.83C194.769 400.724 195.671 399.626 196.565 398.52L196.565 398.518C196.613 395.127 196.223 391.743 195.406 388.452Z" fill="#EBEBEE"/>
<path d="M276.39 457.105C276.783 458.252 277.53 459.244 278.523 459.94C279.516 460.635 280.704 460.998 281.916 460.976L305.596 460.367C306.817 460.343 307.997 459.925 308.961 459.175C309.924 458.424 310.619 457.382 310.941 456.204L314.292 420.373C315.481 420.912 316.775 421.178 318.08 421.151C320.37 421.094 322.543 420.129 324.121 418.47C325.7 416.81 326.554 414.591 326.496 412.302C326.439 410.012 325.474 407.839 323.815 406.261C322.155 404.683 319.936 403.828 317.647 403.886C317.125 403.884 316.605 403.938 316.095 404.047C315.54 403.447 314.866 402.97 314.116 402.646C313.365 402.322 312.556 402.159 311.738 402.167L275.314 403.108C275.012 403.119 274.712 403.156 274.416 403.219C273.617 403.368 272.859 403.687 272.194 404.153C271.529 404.619 270.971 405.223 270.558 405.922C270.145 406.622 269.887 407.403 269.801 408.211C269.716 409.019 269.804 409.836 270.06 410.607L276.39 457.105ZM314.979 417.94L317.364 409.402C317.635 408.415 317.641 407.375 317.382 406.385C317.498 406.385 317.6 406.33 317.716 406.33C319.35 406.296 320.932 406.912 322.113 408.043C323.294 409.173 323.979 410.726 324.017 412.361C324.055 413.995 323.444 415.578 322.317 416.763C321.19 417.948 319.639 418.637 318.005 418.68C316.948 418.713 315.902 418.457 314.979 417.94Z" fill="#C2C4CD"/>
<path d="M274.416 403.22C275.192 407.657 283.917 410.776 294.407 410.234C304.054 409.789 311.942 406.402 313.387 402.387C312.852 402.229 312.296 402.155 311.739 402.167L275.314 403.108C275.012 403.119 274.712 403.156 274.416 403.22Z" fill="#FEFEFE"/>
<path d="M1.26814 591.66L798.732 591.988C799.068 591.988 799.391 591.854 799.629 591.616C799.866 591.378 800 591.056 800 590.72C800 590.383 799.866 590.061 799.629 589.823C799.391 589.585 799.068 589.451 798.732 589.451L1.26814 589.124C0.931806 589.124 0.609252 589.258 0.371429 589.495C0.133605 589.733 0 590.056 0 590.392C0 590.729 0.133605 591.051 0.371429 591.289C0.609252 591.527 0.931806 591.66 1.26814 591.66Z" fill="#C2C4CD"/>
<path d="M448.541 308.243C446.372 308.322 444.32 309.245 442.821 310.814C441.322 312.383 440.494 314.475 440.514 316.645C440.525 317.086 440.573 317.525 440.656 317.959L415.629 332.734L418.658 348.072L450.754 324.124C452.524 323.639 454.083 322.581 455.188 321.117C456.293 319.652 456.883 317.863 456.864 316.029C456.844 314.985 456.618 313.955 456.2 312.999C455.781 312.042 455.178 311.177 454.426 310.454C453.673 309.73 452.785 309.162 451.813 308.781C450.841 308.401 449.803 308.215 448.759 308.236C448.686 308.237 448.614 308.24 448.541 308.243Z" fill="#FFB6B6"/>
<path d="M428.038 343.467C427.368 342.571 427.08 342.195 426.928 342.298C426.536 342.535 426.914 345.703 424.157 351.226C420.277 358.985 379.591 370.868 379.591 370.868L374.582 361.698L352.548 321.396L344.953 289.093C344.688 287.967 344.559 286.813 344.569 285.655C351.34 280.89 358.531 276.751 366.053 273.289C369.058 274.994 371.35 277.724 372.508 280.979L387.675 323.506L393.727 340.485C393.727 340.485 404.403 332.851 408.276 334.253C412.142 335.663 413.241 333.686 410.714 327.356C408.186 321.027 411.98 327.542 416.394 327.956C420.818 328.377 416.394 327.956 418.484 325.271C420.573 322.585 434.081 321.074 434.081 321.074L434.368 321.673L439.603 332.441L441.102 335.535C441.102 335.535 435.552 341.556 434.213 342.756C432.868 343.965 432.452 343.881 433.111 345.259C433.761 346.629 430.363 346.567 428.038 343.467Z" fill="#6C63FF"/>
</g>
<defs>
<clipPath id="clip0_114_151">
<rect width="800" height="592.615" fill="white"/>
</clipPath>
</defs>
</svg>
